<svg width="160" height="37" viewBox="0 0 160 37" fill="none" xmlns="http://www.w3.org/2000/svg">
<rect x="0.5" y="0.751465" width="159" height="35.1143" rx="17.5571" stroke="#FF6C00"/>
<path d="M28.7305 19.7908C28.7305 20.4509 28.6465 21.0525 28.4785 21.5955C28.3145 22.1345 28.0664 22.5994 27.7344 22.99C27.4023 23.3767 26.9863 23.6755 26.4863 23.8865C25.9863 24.0974 25.4004 24.2029 24.7285 24.2029C24.0449 24.2029 23.4512 24.0974 22.9473 23.8865C22.4473 23.6755 22.0312 23.3748 21.6992 22.9841C21.3711 22.5935 21.125 22.1267 20.9609 21.5837C20.7969 21.0408 20.7148 20.4392 20.7148 19.7791C20.7148 18.8962 20.8594 18.1267 21.1484 17.4705C21.4414 16.8103 21.8848 16.2986 22.4785 15.9353C23.0762 15.5681 23.8301 15.3845 24.7402 15.3845C25.6309 15.3845 26.3711 15.5662 26.9609 15.9294C27.5508 16.2927 27.9922 16.8044 28.2852 17.4646C28.582 18.1208 28.7305 18.8962 28.7305 19.7908ZM22.1914 19.7908C22.1914 20.4509 22.2812 21.0232 22.4609 21.5076C22.6406 21.988 22.916 22.3591 23.2871 22.6208C23.6621 22.8787 24.1426 23.0076 24.7285 23.0076C25.3184 23.0076 25.7988 22.8787 26.1699 22.6208C26.541 22.3591 26.8145 21.988 26.9902 21.5076C27.166 21.0232 27.2539 20.4509 27.2539 19.7908C27.2539 18.7869 27.0527 18.0017 26.6504 17.4353C26.252 16.865 25.6152 16.5798 24.7402 16.5798C24.1543 16.5798 23.6719 16.7087 23.293 16.9666C22.918 17.2244 22.6406 17.5935 22.4609 18.074C22.2812 18.5505 22.1914 19.1228 22.1914 19.7908ZM38.7987 24.0857H37.0702L32.8749 17.2478H32.8222C32.8378 17.4783 32.8515 17.7224 32.8632 17.9802C32.8788 18.238 32.8905 18.5037 32.8984 18.7771C32.9101 19.0505 32.9198 19.3279 32.9277 19.6091V24.0857H31.6503V15.5193H33.3671L37.5566 22.3103H37.5976C37.5898 22.1111 37.58 21.8826 37.5683 21.6248C37.5566 21.3669 37.5448 21.1013 37.5331 20.8279C37.5253 20.5505 37.5195 20.283 37.5155 20.0251V15.5193H38.7987V24.0857ZM42.1287 24.0857V15.5193H43.535V22.8904H47.1737V24.0857H42.1287ZM49.7361 24.0857V15.5193H51.1423V24.0857H49.7361ZM61.6325 24.0857H59.904L55.7087 17.2478H55.6559C55.6716 17.4783 55.6852 17.7224 55.697 17.9802C55.7126 18.238 55.7243 18.5037 55.7321 18.7771C55.7438 19.0505 55.7536 19.3279 55.7614 19.6091V24.0857H54.4841V15.5193H56.2009L60.3903 22.3103H60.4313C60.4235 22.1111 60.4137 21.8826 60.402 21.6248C60.3903 21.3669 60.3786 21.1013 60.3669 20.8279C60.3591 20.5505 60.3532 20.283 60.3493 20.0251V15.5193H61.6325V24.0857ZM69.8141 24.0857H64.9625V15.5193H69.8141V16.7029H66.3688V19.0291H69.5973V20.2068H66.3688V22.8962H69.8141V24.0857ZM72.0425 21.449V20.283H75.0659V21.449H72.0425ZM77.6928 15.5193H80.2416C81.3471 15.5193 82.1811 15.6794 82.7436 15.9998C83.3061 16.3201 83.5873 16.8728 83.5873 17.658C83.5873 17.9861 83.5288 18.283 83.4116 18.5486C83.2983 18.8103 83.1323 19.0271 82.9135 19.199C82.6948 19.3669 82.4252 19.4802 82.1049 19.5388V19.5974C82.437 19.656 82.7319 19.7595 82.9897 19.908C83.2514 20.0564 83.4565 20.2693 83.6049 20.5466C83.7573 20.824 83.8334 21.1833 83.8334 21.6248C83.8334 22.1482 83.7084 22.5935 83.4584 22.9607C83.2123 23.3279 82.8588 23.6072 82.3979 23.7986C81.9409 23.99 81.3979 24.0857 80.769 24.0857H77.6928V15.5193ZM79.0991 19.0525H80.4467C81.0834 19.0525 81.5248 18.949 81.7709 18.7419C82.017 18.5349 82.1401 18.2322 82.1401 17.8337C82.1401 17.4275 81.9936 17.1345 81.7006 16.9548C81.4116 16.7751 80.9506 16.6853 80.3178 16.6853H79.0991V19.0525ZM79.0991 20.1892V22.908H80.5815C81.2377 22.908 81.6987 22.781 81.9643 22.5271C82.2299 22.2732 82.3627 21.9294 82.3627 21.4958C82.3627 21.2302 82.3022 20.9998 82.1811 20.8044C82.0639 20.6091 81.8705 20.4587 81.601 20.3533C81.3315 20.2439 80.9682 20.1892 80.5112 20.1892H79.0991ZM94.2884 19.7908C94.2884 20.4509 94.2045 21.0525 94.0365 21.5955C93.8724 22.1345 93.6244 22.5994 93.2923 22.99C92.9603 23.3767 92.5443 23.6755 92.0443 23.8865C91.5443 24.0974 90.9584 24.2029 90.2865 24.2029C89.6029 24.2029 89.0091 24.0974 88.5052 23.8865C88.0052 23.6755 87.5892 23.3748 87.2572 22.9841C86.9291 22.5935 86.683 22.1267 86.5189 21.5837C86.3548 21.0408 86.2728 20.4392 86.2728 19.7791C86.2728 18.8962 86.4173 18.1267 86.7064 17.4705C86.9994 16.8103 87.4427 16.2986 88.0365 15.9353C88.6341 15.5681 89.388 15.3845 90.2982 15.3845C91.1888 15.3845 91.9291 15.5662 92.5189 15.9294C93.1087 16.2927 93.5502 16.8044 93.8431 17.4646C94.14 18.1208 94.2884 18.8962 94.2884 19.7908ZM87.7494 19.7908C87.7494 20.4509 87.8392 21.0232 88.0189 21.5076C88.1986 21.988 88.474 22.3591 88.8451 22.6208C89.2201 22.8787 89.7005 23.0076 90.2865 23.0076C90.8763 23.0076 91.3568 22.8787 91.7279 22.6208C92.099 22.3591 92.3724 21.988 92.5482 21.5076C92.724 21.0232 92.8119 20.4509 92.8119 19.7908C92.8119 18.7869 92.6107 18.0017 92.2084 17.4353C91.8099 16.865 91.1732 16.5798 90.2982 16.5798C89.7123 16.5798 89.2298 16.7087 88.8509 16.9666C88.4759 17.2244 88.1986 17.5935 88.0189 18.074C87.8392 18.5505 87.7494 19.1228 87.7494 19.7908ZM104.814 19.7908C104.814 20.4509 104.73 21.0525 104.562 21.5955C104.398 22.1345 104.15 22.5994 103.818 22.99C103.486 23.3767 103.07 23.6755 102.57 23.8865C102.07 24.0974 101.484 24.2029 100.812 24.2029C100.128 24.2029 99.5345 24.0974 99.0305 23.8865C98.5305 23.6755 98.1145 23.3748 97.7825 22.9841C97.4544 22.5935 97.2083 22.1267 97.0442 21.5837C96.8802 21.0408 96.7981 20.4392 96.7981 19.7791C96.7981 18.8962 96.9427 18.1267 97.2317 17.4705C97.5247 16.8103 97.968 16.2986 98.5618 15.9353C99.1595 15.5681 99.9134 15.3845 100.824 15.3845C101.714 15.3845 102.454 15.5662 103.044 15.9294C103.634 16.2927 104.075 16.8044 104.368 17.4646C104.665 18.1208 104.814 18.8962 104.814 19.7908ZM98.2747 19.7908C98.2747 20.4509 98.3645 21.0232 98.5442 21.5076C98.7239 21.988 98.9993 22.3591 99.3704 22.6208C99.7454 22.8787 100.226 23.0076 100.812 23.0076C101.402 23.0076 101.882 22.8787 102.253 22.6208C102.624 22.3591 102.898 21.988 103.074 21.5076C103.249 21.0232 103.337 20.4509 103.337 19.7908C103.337 18.7869 103.136 18.0017 102.734 17.4353C102.335 16.865 101.699 16.5798 100.824 16.5798C100.238 16.5798 99.7552 16.7087 99.3763 16.9666C99.0013 17.2244 98.7239 17.5935 98.5442 18.074C98.3645 18.5505 98.2747 19.1228 98.2747 19.7908ZM114.267 24.0857H112.65L109.984 20.1951L109.14 20.8806V24.0857H107.734V15.5193H109.14V19.615C109.312 19.4041 109.486 19.1931 109.661 18.9822C109.837 18.7712 110.013 18.5603 110.189 18.3494L112.603 15.5193H114.191L110.991 19.2693L114.267 24.0857ZM116.478 24.0857V15.5193H117.884V24.0857H116.478ZM128.374 24.0857H126.646L122.45 17.2478H122.397C122.413 17.4783 122.427 17.7224 122.439 17.9802C122.454 18.238 122.466 18.5037 122.474 18.7771C122.485 19.0505 122.495 19.3279 122.503 19.6091V24.0857H121.226V15.5193H122.942L127.132 22.3103H127.173C127.165 22.1111 127.155 21.8826 127.144 21.6248C127.132 21.3669 127.12 21.1013 127.108 20.8279C127.101 20.5505 127.095 20.283 127.091 20.0251V15.5193H128.374V24.0857ZM135.161 19.4333H138.36V23.7341C137.911 23.8826 137.446 23.9978 136.966 24.0798C136.485 24.1619 135.946 24.2029 135.349 24.2029C134.478 24.2029 133.739 24.031 133.134 23.6873C132.532 23.3396 132.075 22.8376 131.763 22.1814C131.45 21.5212 131.294 20.7263 131.294 19.7966C131.294 18.9021 131.468 18.1267 131.815 17.4705C132.163 16.8103 132.669 16.3005 133.333 15.9412C133.997 15.5779 134.802 15.3962 135.747 15.3962C136.212 15.3962 136.661 15.4431 137.095 15.5369C137.532 15.6267 137.933 15.7517 138.296 15.9119L137.804 17.072C137.515 16.9353 137.19 16.8201 136.831 16.7263C136.472 16.6326 136.099 16.5857 135.712 16.5857C135.099 16.5857 134.569 16.7185 134.124 16.9841C133.683 17.2498 133.343 17.6248 133.104 18.1091C132.866 18.5896 132.747 19.158 132.747 19.8142C132.747 20.4509 132.843 21.0095 133.034 21.49C133.226 21.9705 133.524 22.3455 133.931 22.615C134.341 22.8806 134.87 23.0134 135.519 23.0134C135.843 23.0134 136.118 22.9958 136.345 22.9607C136.571 22.9255 136.78 22.8865 136.972 22.8435V20.6345H135.161V19.4333Z" fill="white"/>
</svg>
