<svg width="15" height="270" viewBox="0 0 15 270" fill="none" xmlns="http://www.w3.org/2000/svg">
<rect x="7" y="210" width="1" height="60" fill="#303030"/>
<path d="M12 168.969L4.14746 168.969L4.14746 167.68L12 167.68L12 168.969ZM5.94141 160.436C5.94141 159.767 6.11507 159.246 6.4624 158.873C6.80615 158.497 7.35937 158.309 8.12207 158.309L12 158.309L12 159.571L8.3584 159.571C7.89648 159.571 7.55094 159.666 7.32178 159.856C7.08903 160.046 6.97266 160.34 6.97266 160.737C6.97266 161.314 7.1499 161.715 7.50439 161.94C7.85889 162.162 8.37272 162.273 9.0459 162.273L12 162.273L12 163.535L6.0542 163.535L6.0542 162.552L6.85986 162.375L6.85986 162.305C6.65218 162.176 6.4821 162.017 6.34961 161.827C6.21354 161.634 6.11149 161.419 6.04346 161.183C5.97542 160.943 5.94141 160.694 5.94141 160.436ZM10.3027 150.346C10.693 150.346 11.0225 150.441 11.291 150.631C11.5596 150.821 11.7637 151.098 11.9033 151.463C12.0394 151.825 12.1074 152.269 12.1074 152.795C12.1074 153.211 12.077 153.569 12.0161 153.87C11.9588 154.167 11.8693 154.448 11.7476 154.713L10.6572 154.713C10.7897 154.43 10.9043 154.113 11.001 153.762C11.0977 153.408 11.146 153.073 11.146 152.758C11.146 152.342 11.0815 152.043 10.9526 151.861C10.8201 151.678 10.6447 151.587 10.4263 151.587C10.2974 151.587 10.1828 151.624 10.0825 151.7C9.97868 151.771 9.87305 151.907 9.76562 152.108C9.65462 152.305 9.52213 152.595 9.36816 152.978C9.21777 153.354 9.06738 153.671 8.91699 153.929C8.7666 154.186 8.58577 154.382 8.37451 154.514C8.15967 154.647 7.88574 154.713 7.55273 154.713C7.02637 154.713 6.62712 154.505 6.35498 154.09C6.07926 153.671 5.94141 153.118 5.94141 152.43C5.94141 152.065 5.979 151.721 6.0542 151.399C6.12581 151.073 6.23144 150.754 6.37109 150.443L7.32178 150.84C7.20361 151.109 7.10693 151.379 7.03174 151.651C6.95296 151.92 6.91357 152.194 6.91357 152.473C6.91357 152.799 6.9637 153.048 7.06396 153.22C7.16422 153.388 7.30745 153.472 7.49365 153.472C7.6333 153.472 7.75146 153.431 7.84814 153.349C7.94482 153.266 8.0415 153.125 8.13818 152.924C8.23486 152.72 8.35482 152.437 8.49805 152.076C8.63411 151.721 8.77734 151.415 8.92773 151.157C9.07454 150.896 9.25537 150.695 9.47021 150.556C9.68506 150.416 9.96256 150.346 10.3027 150.346ZM11.0869 144.569C11.0869 144.404 11.0726 144.241 11.0439 144.08C11.0117 143.919 10.9741 143.772 10.9312 143.64L11.8872 143.64C11.9481 143.779 12 143.96 12.043 144.182C12.0859 144.404 12.1074 144.635 12.1074 144.875C12.1074 145.212 12.0519 145.514 11.9409 145.783C11.8263 146.051 11.6312 146.264 11.3555 146.422C11.0798 146.58 10.6984 146.658 10.2114 146.658L7.01562 146.658L7.01562 147.469L6.45166 147.469L6.00586 146.599L4.73291 146.186L4.73291 145.391L6.0542 145.391L6.0542 143.688L7.01562 143.688L7.01562 145.391L10.1953 145.391C10.4961 145.391 10.7199 145.316 10.8667 145.165C11.0135 145.015 11.0869 144.816 11.0869 144.569ZM5.9414 137.9C5.9414 137.148 6.10791 136.581 6.44092 136.198C6.77392 135.811 7.29313 135.617 7.99853 135.617L12 135.617L12 136.514L11.1567 136.756L11.1567 136.799C11.3716 136.967 11.5488 137.141 11.6885 137.32C11.8281 137.499 11.932 137.707 12 137.943C12.0716 138.176 12.1074 138.461 12.1074 138.797C12.1074 139.152 12.043 139.469 11.9141 139.748C11.7816 140.027 11.5811 140.247 11.3125 140.408C11.0439 140.57 10.7038 140.65 10.292 140.65C9.67969 140.65 9.21956 140.423 8.91162 139.968C8.60368 139.51 8.43359 138.819 8.40137 137.895L8.36377 136.864L8.05224 136.864C7.64046 136.864 7.34684 136.96 7.17139 137.154C6.99593 137.343 6.9082 137.612 6.9082 137.959C6.9082 138.256 6.95117 138.545 7.03711 138.824C7.12305 139.103 7.22868 139.375 7.354 139.64L6.4624 140.049C6.30843 139.759 6.1831 139.429 6.08642 139.06C5.98974 138.688 5.9414 138.301 5.9414 137.9ZM9.15869 136.869L9.18555 137.637C9.20703 138.267 9.31445 138.709 9.50781 138.964C9.70117 139.218 9.96614 139.345 10.3027 139.345C10.5964 139.345 10.8112 139.257 10.9473 139.082C11.0798 138.906 11.146 138.675 11.146 138.389C11.146 137.952 11.0225 137.59 10.7754 137.304C10.5247 137.014 10.1577 136.869 9.67431 136.869L9.15869 136.869ZM14.6426 129.953C14.6426 130.759 14.4976 131.376 14.2075 131.806C13.9175 132.236 13.5111 132.451 12.9883 132.451C12.623 132.451 12.3133 132.336 12.0591 132.107C11.8084 131.878 11.6348 131.55 11.5381 131.124C11.4665 131.285 11.3555 131.425 11.2051 131.543C11.0511 131.658 10.881 131.715 10.6948 131.715C10.4728 131.715 10.283 131.652 10.1255 131.527C9.96793 131.402 9.81575 131.214 9.66894 130.963C9.53646 131.274 9.32161 131.525 9.02441 131.715C8.72363 131.901 8.37093 131.994 7.96631 131.994C7.53662 131.994 7.17139 131.903 6.8706 131.72C6.56624 131.538 6.33528 131.271 6.17773 130.92C6.0166 130.569 5.93603 130.145 5.93603 129.647C5.93603 129.54 5.94319 129.423 5.95752 129.298C5.96826 129.169 5.98258 129.051 6.00049 128.943C6.01481 128.832 6.03092 128.748 6.04883 128.691L6.04883 126.634L6.75244 126.634L6.94043 127.644C7.0765 127.547 7.23226 127.47 7.40771 127.413C7.57959 127.355 7.76758 127.327 7.97168 127.327C8.58756 127.327 9.07275 127.54 9.42724 127.966C9.77816 128.388 9.95361 128.972 9.95361 129.717C9.94645 129.896 9.93213 130.069 9.91064 130.238C9.98942 130.367 10.0771 130.465 10.1738 130.533C10.2669 130.601 10.3726 130.635 10.4907 130.635C10.5874 130.635 10.6662 130.601 10.727 130.533C10.7843 130.465 10.8273 130.365 10.856 130.232C10.8846 130.096 10.8989 129.932 10.8989 129.738L10.8989 128.712C10.8989 128.061 11.0368 127.563 11.3125 127.219C11.5882 126.875 11.9928 126.704 12.5264 126.704C13.2031 126.704 13.7241 126.983 14.0894 127.542C14.4582 128.1 14.6426 128.904 14.6426 129.953ZM13.7563 129.905C13.7563 129.464 13.7134 129.094 13.6274 128.793C13.5415 128.492 13.418 128.265 13.2568 128.111C13.0993 127.957 12.9113 127.88 12.6929 127.88C12.4995 127.88 12.3509 127.928 12.2471 128.025C12.1432 128.122 12.0716 128.267 12.0322 128.46C11.9928 128.653 11.9731 128.893 11.9731 129.18L11.9731 130.114C11.9731 130.347 12.009 130.553 12.0806 130.732C12.1558 130.911 12.2632 131.051 12.4028 131.151C12.5425 131.248 12.7108 131.296 12.9077 131.296C13.1798 131.296 13.3893 131.176 13.5361 130.936C13.6829 130.693 13.7563 130.349 13.7563 129.905ZM9.12646 129.658C9.12646 129.289 9.0262 129.015 8.82568 128.836C8.62158 128.657 8.33512 128.567 7.96631 128.567C7.56527 128.567 7.26448 128.66 7.06396 128.847C6.86344 129.029 6.76318 129.301 6.76318 129.663C6.76318 130.018 6.86523 130.288 7.06933 130.474C7.27344 130.657 7.57601 130.748 7.97705 130.748C8.3387 130.748 8.62158 130.657 8.82568 130.474C9.0262 130.288 9.12646 130.016 9.12646 129.658ZM5.9414 120.336C5.9414 120.235 5.94678 120.126 5.95752 120.008C5.96826 119.89 5.98258 119.788 6.00049 119.702L7.18213 119.82C7.16064 119.895 7.14453 119.988 7.13379 120.099C7.12304 120.207 7.11767 120.303 7.11767 120.389C7.11767 120.615 7.15527 120.83 7.23047 121.034C7.30208 121.238 7.41308 121.419 7.56347 121.576C7.71028 121.734 7.89469 121.857 8.1167 121.947C8.3387 122.036 8.59651 122.081 8.89013 122.081L12 122.081L12 123.349L6.0542 123.349L6.0542 122.361L7.10156 122.189L7.10156 122.13C6.8903 122.011 6.69694 121.865 6.52148 121.689C6.34603 121.514 6.20638 121.313 6.10254 121.088C5.99512 120.858 5.9414 120.608 5.9414 120.336ZM5.9414 114.07C5.9414 113.318 6.10791 112.75 6.44092 112.367C6.77392 111.98 7.29313 111.787 7.99853 111.787L12 111.787L12 112.684L11.1567 112.926L11.1567 112.969C11.3716 113.137 11.5488 113.311 11.6885 113.49C11.8281 113.669 11.932 113.876 12 114.113C12.0716 114.345 12.1074 114.63 12.1074 114.967C12.1074 115.321 12.043 115.638 11.9141 115.917C11.7816 116.197 11.5811 116.417 11.3125 116.578C11.0439 116.739 10.7038 116.82 10.292 116.82C9.67969 116.82 9.21956 116.592 8.91162 116.138C8.60368 115.679 8.43359 114.988 8.40136 114.064L8.36377 113.033L8.05224 113.033C7.64046 113.033 7.34684 113.13 7.17138 113.323C6.99593 113.513 6.9082 113.781 6.9082 114.129C6.9082 114.426 6.95117 114.714 7.03711 114.994C7.12304 115.273 7.22868 115.545 7.354 115.81L6.4624 116.218C6.30843 115.928 6.1831 115.599 6.08642 115.23C5.98974 114.857 5.9414 114.471 5.9414 114.07ZM9.15869 113.038L9.18554 113.807C9.20703 114.437 9.31445 114.879 9.50781 115.133C9.70117 115.387 9.96614 115.515 10.3027 115.515C10.5964 115.515 10.8112 115.427 10.9473 115.251C11.0798 115.076 11.146 114.845 11.146 114.558C11.146 114.122 11.0225 113.76 10.7754 113.474C10.5247 113.183 10.1577 113.038 9.67431 113.038L9.15869 113.038ZM5.9414 101.101C5.9414 100.435 6.11328 99.9334 6.45703 99.5968C6.80078 99.2566 7.35221 99.0865 8.11133 99.0865L12 99.0865L12 100.349L8.33691 100.349C7.88574 100.349 7.54557 100.436 7.3164 100.612C7.08724 100.787 6.97265 101.054 6.97265 101.412C6.97265 101.914 7.13379 102.275 7.45605 102.497C7.77474 102.716 8.23844 102.825 8.84717 102.825L12 102.825L12 104.087L8.33691 104.087C8.03613 104.087 7.78548 104.126 7.58496 104.205C7.38086 104.28 7.22868 104.397 7.12842 104.554C7.02457 104.712 6.97265 104.911 6.97265 105.15C6.97265 105.498 7.05143 105.775 7.20898 105.983C7.36653 106.187 7.59928 106.334 7.90722 106.423C8.21159 106.513 8.58577 106.558 9.02978 106.558L12 106.558L12 107.82L6.0542 107.82L6.0542 106.837L6.85449 106.66L6.85449 106.59C6.64681 106.468 6.47672 106.318 6.34424 106.139C6.20817 105.956 6.10791 105.754 6.04345 105.532C5.97542 105.31 5.9414 105.079 5.9414 104.839C5.9414 104.395 6.02018 104.021 6.17773 103.716C6.3317 103.412 6.56803 103.185 6.88672 103.034L6.88672 102.938C6.56445 102.751 6.32633 102.492 6.17236 102.159C6.01839 101.826 5.9414 101.473 5.9414 101.101Z" fill="#FF6C00"/>
<path d="M7.72998 54.7451L4.14746 52.8813L4.14746 51.4902L8.94922 54.1006L12 54.1006L12 55.3843L8.99756 55.3843L4.14746 58L4.14746 56.5981L7.72998 54.7451ZM9.01367 43.1242C9.50781 43.1242 9.94645 43.1887 10.3296 43.3176C10.7127 43.4465 11.0368 43.6345 11.3018 43.8815C11.5632 44.1286 11.7637 44.4258 11.9033 44.7731C12.0394 45.1205 12.1074 45.5126 12.1074 45.9494C12.1074 46.3576 12.0394 46.7318 11.9033 47.072C11.7637 47.4121 11.5632 47.7076 11.3018 47.9582C11.0368 48.2053 10.7127 48.3968 10.3296 48.5329C9.94645 48.669 9.50781 48.737 9.01367 48.737C8.3584 48.737 7.80339 48.6242 7.34863 48.3986C6.8903 48.1695 6.54118 47.8436 6.30127 47.4211C6.06136 46.9986 5.94141 46.4955 5.94141 45.9118C5.94141 45.364 6.06136 44.8806 6.30127 44.4616C6.54118 44.0427 6.8903 43.715 7.34863 43.4787C7.80697 43.2424 8.36198 43.1242 9.01367 43.1242ZM9.01367 47.4372C9.44694 47.4372 9.81755 47.3853 10.1255 47.2814C10.4334 47.174 10.6698 47.0093 10.8345 46.7873C10.9956 46.5653 11.0762 46.2788 11.0762 45.9279C11.0762 45.577 10.9956 45.2906 10.8345 45.0686C10.6698 44.8465 10.4334 44.6836 10.1255 44.5798C9.81754 44.4759 9.44694 44.424 9.01367 44.424C8.5804 44.424 8.21338 44.4759 7.9126 44.5798C7.60824 44.6836 7.37728 44.8465 7.21973 45.0686C7.05859 45.2906 6.97803 45.5788 6.97803 45.9333C6.97803 46.4561 7.15348 46.8374 7.50439 47.0773C7.85531 47.3173 8.3584 47.4372 9.01367 47.4372ZM6.0542 34.2909L12 34.2909L12 35.2846L11.1997 35.4564L11.1997 35.5263C11.4038 35.6516 11.5739 35.8109 11.71 36.0043C11.8424 36.1977 11.9409 36.4125 12.0054 36.6488C12.0734 36.8852 12.1074 37.134 12.1074 37.3954C12.1074 37.843 12.0322 38.2261 11.8818 38.5448C11.7279 38.8599 11.4915 39.1016 11.1729 39.2699C10.8542 39.4382 10.4424 39.5224 9.9375 39.5224L6.0542 39.5224L6.0542 38.2548L9.70117 38.2548C10.1631 38.2548 10.5086 38.1617 10.7378 37.9755C10.967 37.7857 11.0815 37.4921 11.0815 37.0946C11.0815 36.7115 11.0028 36.4071 10.8452 36.1815C10.6877 35.956 10.4549 35.7966 10.147 35.7035C9.83903 35.6068 9.46126 35.5585 9.01367 35.5585L6.0542 35.5585L6.0542 34.2909ZM11.0869 28.068C11.0869 27.9033 11.0726 27.7403 11.0439 27.5792C11.0117 27.4181 10.9741 27.2713 10.9312 27.1388L11.8872 27.1388C11.9481 27.2784 12 27.4592 12.043 27.6812C12.0859 27.9033 12.1074 28.1342 12.1074 28.3741C12.1074 28.7107 12.0519 29.0133 11.9409 29.2818C11.8263 29.5504 11.6312 29.7634 11.3555 29.921C11.0798 30.0785 10.6984 30.1573 10.2114 30.1573L7.01562 30.1573L7.01562 30.9684L6.45166 30.9684L6.00586 30.0982L4.73291 29.6847L4.73291 28.8897L6.0542 28.8897L6.0542 27.1871L7.01562 27.1871L7.01562 28.8897L10.1953 28.8897C10.4961 28.8897 10.7199 28.8145 10.8667 28.6642C11.0135 28.5138 11.0869 28.315 11.0869 28.068ZM6.0542 18.5472L12 18.5472L12 19.5408L11.1997 19.7127L11.1997 19.7825C11.4038 19.9078 11.5739 20.0672 11.71 20.2605C11.8424 20.4539 11.9409 20.6688 12.0054 20.9051C12.0734 21.1414 12.1074 21.3903 12.1074 21.6517C12.1074 22.0993 12.0322 22.4824 11.8818 22.8011C11.7279 23.1162 11.4915 23.3579 11.1729 23.5262C10.8542 23.6945 10.4424 23.7786 9.9375 23.7786L6.0542 23.7786L6.0542 22.511L9.70117 22.511C10.1631 22.511 10.5086 22.4179 10.7378 22.2317C10.967 22.042 11.0815 21.7483 11.0815 21.3509C11.0815 20.9677 11.0028 20.6634 10.8452 20.4378C10.6877 20.2122 10.4549 20.0529 10.147 19.9598C9.83903 19.8631 9.46126 19.8147 9.01367 19.8147L6.0542 19.8147L6.0542 18.5472ZM3.64258 13.2749L5.65674 13.2749C5.88948 13.2749 6.11865 13.2821 6.34424 13.2964C6.56624 13.3071 6.73991 13.3179 6.86523 13.3286L6.86523 13.2749C6.60742 13.1138 6.39079 12.89 6.21533 12.6035C6.03629 12.3135 5.94678 11.9429 5.94678 11.4917C5.94678 10.7863 6.20638 10.2187 6.72558 9.78906C7.24121 9.35937 8.00569 9.14453 9.01904 9.14453C9.69222 9.14453 10.258 9.243 10.7163 9.43994C11.1746 9.63688 11.522 9.91439 11.7583 10.2725C11.991 10.627 12.1074 11.0441 12.1074 11.5239C12.1074 11.9751 12.0251 12.3403 11.8603 12.6196C11.6921 12.8953 11.4969 13.112 11.2749 13.2695L11.2749 13.3608L12 13.5918L12 14.5371L3.64258 14.5371L3.64258 13.2749ZM6.97265 11.8247C6.97265 12.1828 7.04427 12.4674 7.1875 12.6787C7.33073 12.8864 7.54557 13.0368 7.83203 13.1299C8.11491 13.223 8.47477 13.2713 8.91162 13.2749L9.02441 13.2749C9.68685 13.2749 10.1935 13.1711 10.5444 12.9634C10.8953 12.7521 11.0708 12.369 11.0708 11.814C11.0708 11.3735 10.8936 11.0352 10.5391 10.7988C10.181 10.5625 9.66894 10.4443 9.00293 10.4443C8.32975 10.4443 7.82308 10.5625 7.48291 10.7988C7.14274 11.0316 6.97265 11.3735 6.97265 11.8247ZM5.9414 3.11494C5.9414 2.58499 6.05062 2.13024 6.26904 1.75068C6.48746 1.37113 6.7972 1.0793 7.19824 0.875194C7.59928 0.671093 8.0791 0.569042 8.63769 0.569042L9.31445 0.569042L9.31445 4.53828C9.89095 4.52396 10.335 4.36999 10.6465 4.07637C10.958 3.77917 11.1138 3.3638 11.1138 2.83027C11.1138 2.45071 11.078 2.11055 11.0063 1.80976C10.9311 1.5054 10.8219 1.19209 10.6787 0.869823L11.7046 0.869823C11.8442 1.16702 11.9463 1.4696 12.0107 1.77754C12.0752 2.08548 12.1074 2.4543 12.1074 2.88398C12.1074 3.46764 11.9946 3.98148 11.769 4.42549C11.5399 4.86592 11.1997 5.21146 10.7485 5.46211C10.2974 5.70918 9.73698 5.83271 9.06738 5.83271C8.40136 5.83271 7.83561 5.71992 7.37011 5.49433C6.90462 5.26875 6.55013 4.95185 6.30664 4.54365C6.06315 4.13545 5.9414 3.65921 5.9414 3.11494ZM6.89209 3.11494C6.89209 3.5124 7.02099 3.83467 7.27881 4.08174C7.53662 4.32523 7.91439 4.46846 8.41211 4.51142L8.41211 1.80439C8.11491 1.80797 7.85172 1.8581 7.62256 1.95478C7.39339 2.04788 7.21435 2.19111 7.08545 2.38447C6.95654 2.57425 6.89209 2.81774 6.89209 3.11494Z" fill="#303030"/>
</svg>
