<svg width="122" height="93" viewBox="0 0 122 93" fill="none" xmlns="http://www.w3.org/2000/svg">
<path d="M51.0555 45H30.0965V40.5908L37.6229 32.9824C39.1404 31.4238 40.3572 30.125 41.2732 29.0859C42.2029 28.0332 42.8729 27.0762 43.283 26.2148C43.7068 25.3535 43.9188 24.4307 43.9188 23.4463C43.9188 22.2568 43.5838 21.3682 42.9139 20.7803C42.2576 20.1787 41.3758 19.8779 40.2684 19.8779C39.1063 19.8779 37.9783 20.1445 36.8846 20.6777C35.7908 21.2109 34.6492 21.9697 33.4598 22.9541L30.0145 18.873C30.8758 18.1348 31.785 17.4375 32.742 16.7812C33.7127 16.125 34.8338 15.5986 36.1053 15.2021C37.3904 14.792 38.9285 14.5869 40.7195 14.5869C42.6883 14.5869 44.3768 14.9424 45.785 15.6533C47.2068 16.3643 48.3006 17.335 49.0662 18.5654C49.8318 19.7822 50.2146 21.1631 50.2146 22.708C50.2146 24.3623 49.8865 25.873 49.2303 27.2402C48.574 28.6074 47.617 29.9609 46.3592 31.3008C45.115 32.6406 43.6111 34.124 41.8475 35.751L37.992 39.3809V39.668H51.0555V45ZM77.0266 30.0088C77.0266 32.4287 76.8352 34.5889 76.4523 36.4893C76.0832 38.3896 75.4816 40.0029 74.6477 41.3291C73.8273 42.6553 72.7473 43.667 71.4074 44.3643C70.0676 45.0615 68.4406 45.4102 66.5266 45.4102C64.1203 45.4102 62.1447 44.8018 60.5998 43.585C59.0549 42.3545 57.9133 40.5908 57.175 38.2939C56.4367 35.9834 56.0676 33.2217 56.0676 30.0088C56.0676 26.7686 56.4025 24 57.0725 21.7031C57.7561 19.3926 58.8635 17.6221 60.3947 16.3916C61.926 15.1611 63.9699 14.5459 66.5266 14.5459C68.9191 14.5459 70.8879 15.1611 72.4328 16.3916C73.9914 17.6084 75.1467 19.3721 75.8986 21.6826C76.6506 23.9795 77.0266 26.7549 77.0266 30.0088ZM62.3635 30.0088C62.3635 32.292 62.4865 34.1992 62.7326 35.7305C62.9924 37.248 63.423 38.3896 64.0246 39.1553C64.6262 39.9209 65.4602 40.3037 66.5266 40.3037C67.5793 40.3037 68.4064 39.9277 69.008 39.1758C69.6232 38.4102 70.0607 37.2686 70.3205 35.751C70.5803 34.2197 70.7102 32.3057 70.7102 30.0088C70.7102 27.7256 70.5803 25.8184 70.3205 24.2871C70.0607 22.7559 69.6232 21.6074 69.008 20.8418C68.4064 20.0625 67.5793 19.6729 66.5266 19.6729C65.4602 19.6729 64.6262 20.0625 64.0246 20.8418C63.423 21.6074 62.9924 22.7559 62.7326 24.2871C62.4865 25.8184 62.3635 27.7256 62.3635 30.0088Z" fill="#303030"/>
<path d="M39.0376 75H37.5552L35.1113 71.4336L34.3379 72.062V75H33.0488V67.1475H34.3379V70.9019C34.4954 70.7085 34.6548 70.5151 34.8159 70.3218C34.9771 70.1284 35.1382 69.9351 35.2993 69.7417L37.5122 67.1475H38.9678L36.0352 70.585L39.0376 75ZM39.0483 69.0542H40.4233L41.6426 72.4487C41.6963 72.6027 41.7446 72.7549 41.7876 72.9053C41.8341 73.0521 41.8735 73.1971 41.9058 73.3403C41.9416 73.4836 41.9702 73.6268 41.9917 73.77H42.0239C42.0597 73.5838 42.1099 73.3761 42.1743 73.147C42.2424 72.9142 42.3175 72.6815 42.3999 72.4487L43.5708 69.0542H44.9297L42.3784 75.8164C42.2316 76.2031 42.0508 76.5326 41.8359 76.8047C41.6247 77.0804 41.374 77.2881 41.084 77.4277C40.7939 77.571 40.4627 77.6426 40.0903 77.6426C39.9113 77.6426 39.7555 77.6318 39.623 77.6104C39.4906 77.5924 39.3778 77.5728 39.2847 77.5513V76.5415C39.3599 76.5594 39.4548 76.5755 39.5693 76.5898C39.6839 76.6042 39.8021 76.6113 39.9238 76.6113C40.1494 76.6113 40.3446 76.5666 40.5093 76.4771C40.674 76.3875 40.8136 76.2604 40.9282 76.0957C41.0428 75.9346 41.1377 75.7502 41.2129 75.5425L41.4224 74.9839L39.0483 69.0542ZM47.0942 69.0542V75H45.832V69.0542L47.0942 69.0542ZM46.4712 66.7769C46.6646 66.7769 46.8311 66.8288 46.9707 66.9326C47.1139 67.0365 47.1855 67.2155 47.1855 67.4697C47.1855 67.7204 47.1139 67.8994 46.9707 68.0068C46.8311 68.1107 46.6646 68.1626 46.4712 68.1626C46.2707 68.1626 46.1006 68.1107 45.9609 68.0068C45.8249 67.8994 45.7568 67.7204 45.7568 67.4697C45.7568 67.2155 45.8249 67.0365 45.9609 66.9326C46.1006 66.8288 46.2707 66.7769 46.4712 66.7769ZM50.2632 75L48.002 69.0542H49.3394L50.564 72.5454C50.6427 72.7674 50.7144 73.0073 50.7788 73.2651C50.8433 73.5229 50.888 73.7396 50.9131 73.915H50.9561C50.9811 73.7324 51.0295 73.514 51.1011 73.2598C51.1727 73.002 51.2461 72.7638 51.3213 72.5454L52.5459 69.0542H53.8779L51.6167 75H50.2632ZM55.79 67.1475L55.8706 67.2656C55.8062 67.527 55.722 67.8063 55.6182 68.1035C55.5179 68.4007 55.4087 68.6979 55.2905 68.9951C55.1724 69.2923 55.0524 69.5734 54.9307 69.8384H54.0176C54.0677 69.6271 54.1196 69.4051 54.1733 69.1724C54.2271 68.936 54.279 68.6997 54.3291 68.4634C54.3792 68.2235 54.424 67.9925 54.4634 67.7705C54.5028 67.5449 54.5368 67.3372 54.5654 67.1475H55.79ZM60.9033 73.3027C60.9033 73.693 60.8084 74.0225 60.6187 74.291C60.4289 74.5596 60.1514 74.7637 59.7861 74.9033C59.4245 75.0394 58.9805 75.1074 58.4541 75.1074C58.0387 75.1074 57.6807 75.077 57.3799 75.0161C57.0827 74.9588 56.8016 74.8693 56.5366 74.7476V73.6572C56.8195 73.7897 57.1364 73.9043 57.4873 74.001C57.8418 74.0977 58.1766 74.146 58.4917 74.146C58.9071 74.146 59.2061 74.0815 59.3887 73.9526C59.5713 73.8201 59.6626 73.6447 59.6626 73.4263C59.6626 73.2974 59.625 73.1828 59.5498 73.0825C59.4782 72.9787 59.3421 72.873 59.1416 72.7656C58.9447 72.6546 58.6546 72.5221 58.2715 72.3682C57.8955 72.2178 57.5786 72.0674 57.3208 71.917C57.063 71.7666 56.8678 71.5858 56.7354 71.3745C56.6029 71.1597 56.5366 70.8857 56.5366 70.5527C56.5366 70.0264 56.7443 69.6271 57.1597 69.355C57.5786 69.0793 58.1318 68.9414 58.8193 68.9414C59.1846 68.9414 59.5283 68.979 59.8506 69.0542C60.1764 69.1258 60.4951 69.2314 60.8066 69.3711L60.4092 70.3218C60.1406 70.2036 59.8703 70.1069 59.5981 70.0317C59.3296 69.953 59.0557 69.9136 58.7764 69.9136C58.4505 69.9136 58.2017 69.9637 58.0298 70.064C57.8615 70.1642 57.7773 70.3075 57.7773 70.4937C57.7773 70.6333 57.8185 70.7515 57.9009 70.8481C57.9832 70.9448 58.1247 71.0415 58.3252 71.1382C58.5293 71.2349 58.8122 71.3548 59.1738 71.498C59.5283 71.6341 59.8345 71.7773 60.0923 71.9277C60.3537 72.0745 60.5542 72.2554 60.6938 72.4702C60.8335 72.6851 60.9033 72.9626 60.9033 73.3027ZM66.3872 66.6426V68.6567C66.3872 68.8895 66.38 69.1187 66.3657 69.3442C66.355 69.5662 66.3442 69.7399 66.3335 69.8652H66.3872C66.5483 69.6074 66.7721 69.3908 67.0586 69.2153C67.3486 69.0363 67.7192 68.9468 68.1704 68.9468C68.8758 68.9468 69.4434 69.2064 69.873 69.7256C70.3027 70.2412 70.5176 71.0057 70.5176 72.019C70.5176 72.6922 70.4191 73.258 70.2222 73.7163C70.0252 74.1746 69.7477 74.522 69.3896 74.7583C69.0352 74.991 68.618 75.1074 68.1382 75.1074C67.687 75.1074 67.3218 75.0251 67.0425 74.8604C66.7668 74.6921 66.5501 74.4969 66.3926 74.2749H66.3013L66.0703 75H65.125V66.6426H66.3872ZM67.8374 69.9727C67.4793 69.9727 67.1947 70.0443 66.9834 70.1875C66.7757 70.3307 66.6253 70.5456 66.5322 70.832C66.4391 71.1149 66.3908 71.4748 66.3872 71.9116V72.0244C66.3872 72.6868 66.491 73.1935 66.6987 73.5444C66.91 73.8953 67.2931 74.0708 67.8481 74.0708C68.2886 74.0708 68.627 73.8936 68.8633 73.5391C69.0996 73.181 69.2178 72.6689 69.2178 72.0029C69.2178 71.3298 69.0996 70.8231 68.8633 70.4829C68.6305 70.1427 68.2886 69.9727 67.8374 69.9727ZM74.3472 68.9414C74.8771 68.9414 75.3319 69.0506 75.7114 69.269C76.091 69.4875 76.3828 69.7972 76.5869 70.1982C76.791 70.5993 76.8931 71.0791 76.8931 71.6377V72.3145H72.9238C72.9382 72.891 73.0921 73.335 73.3857 73.6465C73.6829 73.958 74.0983 74.1138 74.6318 74.1138C75.0114 74.1138 75.3516 74.078 75.6523 74.0063C75.9567 73.9312 76.27 73.8219 76.5923 73.6787V74.7046C76.2951 74.8442 75.9925 74.9463 75.6846 75.0107C75.3766 75.0752 75.0078 75.1074 74.5781 75.1074C73.9945 75.1074 73.4806 74.9946 73.0366 74.769C72.5962 74.5399 72.2507 74.1997 72 73.7485C71.7529 73.2974 71.6294 72.737 71.6294 72.0674C71.6294 71.4014 71.7422 70.8356 71.9678 70.3701C72.1934 69.9046 72.5103 69.5501 72.9185 69.3066C73.3267 69.0632 73.8029 68.9414 74.3472 68.9414ZM74.3472 69.8921C73.9497 69.8921 73.6274 70.021 73.3804 70.2788C73.1369 70.5366 72.9937 70.9144 72.9507 71.4121H75.6577C75.6541 71.1149 75.604 70.8517 75.5073 70.6226C75.4142 70.3934 75.271 70.2144 75.0776 70.0854C74.8879 69.9565 74.6444 69.8921 74.3472 69.8921ZM82.3125 73.3027C82.3125 73.693 82.2176 74.0225 82.0278 74.291C81.8381 74.5596 81.5605 74.7637 81.1953 74.9033C80.8337 75.0394 80.3896 75.1074 79.8633 75.1074C79.4479 75.1074 79.0898 75.077 78.7891 75.0161C78.4919 74.9588 78.2108 74.8693 77.9458 74.7476V73.6572C78.2287 73.7897 78.5456 73.9043 78.8965 74.001C79.251 74.0977 79.5858 74.146 79.9009 74.146C80.3162 74.146 80.6152 74.0815 80.7979 73.9526C80.9805 73.8201 81.0718 73.6447 81.0718 73.4263C81.0718 73.2974 81.0342 73.1828 80.959 73.0825C80.8874 72.9787 80.7513 72.873 80.5508 72.7656C80.3538 72.6546 80.0638 72.5221 79.6807 72.3682C79.3047 72.2178 78.9878 72.0674 78.73 71.917C78.4722 71.7666 78.277 71.5858 78.1445 71.3745C78.012 71.1597 77.9458 70.8857 77.9458 70.5527C77.9458 70.0264 78.1535 69.6271 78.5688 69.355C78.9878 69.0793 79.541 68.9414 80.2285 68.9414C80.5938 68.9414 80.9375 68.979 81.2598 69.0542C81.5856 69.1258 81.9043 69.2314 82.2158 69.3711L81.8184 70.3218C81.5498 70.2036 81.2795 70.1069 81.0073 70.0317C80.7388 69.953 80.4648 69.9136 80.1855 69.9136C79.8597 69.9136 79.6108 69.9637 79.439 70.064C79.2707 70.1642 79.1865 70.3075 79.1865 70.4937C79.1865 70.6333 79.2277 70.7515 79.3101 70.8481C79.3924 70.9448 79.5339 71.0415 79.7344 71.1382C79.9385 71.2349 80.2214 71.3548 80.583 71.498C80.9375 71.6341 81.2437 71.7773 81.5015 71.9277C81.7629 72.0745 81.9634 72.2554 82.103 72.4702C82.2427 72.6851 82.3125 72.9626 82.3125 73.3027ZM85.8896 74.0869C86.0544 74.0869 86.2173 74.0726 86.3784 74.0439C86.5396 74.0117 86.6864 73.9741 86.8188 73.9312V74.8872C86.6792 74.9481 86.4984 75 86.2764 75.043C86.0544 75.0859 85.8234 75.1074 85.5835 75.1074C85.2469 75.1074 84.9443 75.0519 84.6758 74.9409C84.4072 74.8263 84.1942 74.6312 84.0366 74.3555C83.8791 74.0798 83.8003 73.6984 83.8003 73.2114V70.0156H82.9893V69.4517L83.8594 69.0059L84.2729 67.7329H85.0679V69.0542H86.7705V70.0156H85.0679V73.1953C85.0679 73.4961 85.1431 73.7199 85.2935 73.8667C85.4438 74.0135 85.6426 74.0869 85.8896 74.0869ZM42.5234 81.6426V83.6567C42.5234 83.8895 42.5163 84.1187 42.502 84.3442C42.4912 84.5662 42.4805 84.7399 42.4697 84.8652H42.5234C42.6846 84.6074 42.9084 84.3908 43.1948 84.2153C43.4849 84.0363 43.8555 83.9468 44.3066 83.9468C45.012 83.9468 45.5796 84.2064 46.0093 84.7256C46.439 85.2412 46.6538 86.0057 46.6538 87.019C46.6538 87.6922 46.5553 88.258 46.3584 88.7163C46.1615 89.1746 45.884 89.522 45.5259 89.7583C45.1714 89.991 44.7542 90.1074 44.2744 90.1074C43.8232 90.1074 43.458 90.0251 43.1787 89.8604C42.903 89.6921 42.6864 89.4969 42.5288 89.2749H42.4375L42.2065 90H41.2612L41.2612 81.6426H42.5234ZM43.9736 84.9727C43.6156 84.9727 43.3309 85.0443 43.1196 85.1875C42.9119 85.3307 42.7616 85.5456 42.6685 85.832C42.5754 86.1149 42.527 86.4748 42.5234 86.9116V87.0244C42.5234 87.6868 42.6273 88.1935 42.835 88.5444C43.0462 88.8953 43.4294 89.0708 43.9844 89.0708C44.4248 89.0708 44.7632 88.8936 44.9995 88.5391C45.2358 88.181 45.354 87.6689 45.354 87.0029C45.354 86.3298 45.2358 85.8231 44.9995 85.4829C44.7668 85.1427 44.4248 84.9727 43.9736 84.9727ZM50.4458 83.9414C51.1978 83.9414 51.7653 84.1079 52.1484 84.4409C52.5352 84.7739 52.7285 85.2931 52.7285 85.9985V90H51.8315L51.5898 89.1567H51.5469C51.3786 89.3716 51.2049 89.5488 51.0259 89.6885C50.8468 89.8281 50.6392 89.932 50.4028 90C50.1701 90.0716 49.8854 90.1074 49.5488 90.1074C49.1943 90.1074 48.8774 90.043 48.5981 89.9141C48.3188 89.7816 48.0986 89.5811 47.9375 89.3125C47.7764 89.0439 47.6958 88.7038 47.6958 88.292C47.6958 87.6797 47.9232 87.2196 48.3779 86.9116C48.8363 86.6037 49.5273 86.4336 50.4512 86.4014L51.4824 86.3638V86.0522C51.4824 85.6405 51.3857 85.3468 51.1924 85.1714C51.0026 84.9959 50.734 84.9082 50.3867 84.9082C50.0895 84.9082 49.8013 84.9512 49.522 85.0371C49.2427 85.123 48.9705 85.2287 48.7056 85.354L48.2974 84.4624C48.5874 84.3084 48.9168 84.1831 49.2856 84.0864C49.658 83.9897 50.0448 83.9414 50.4458 83.9414ZM51.4771 87.1587L50.709 87.1855C50.0788 87.207 49.6366 87.3145 49.3823 87.5078C49.1281 87.7012 49.001 87.9661 49.001 88.3027C49.001 88.5964 49.0887 88.8112 49.2642 88.9473C49.4396 89.0798 49.6706 89.146 49.957 89.146C50.3939 89.146 50.7555 89.0225 51.042 88.7754C51.332 88.5247 51.4771 88.1577 51.4771 87.6743V87.1587ZM57.5088 83.9414C57.609 83.9414 57.7183 83.9468 57.8364 83.9575C57.9546 83.9683 58.0566 83.9826 58.1426 84.0005L58.0244 85.1821C57.9492 85.1606 57.8561 85.1445 57.7451 85.1338C57.6377 85.123 57.541 85.1177 57.4551 85.1177C57.2295 85.1177 57.0146 85.1553 56.8105 85.2305C56.6064 85.3021 56.4256 85.4131 56.2681 85.5635C56.1105 85.7103 55.987 85.8947 55.8975 86.1167C55.8079 86.3387 55.7632 86.5965 55.7632 86.8901V90L54.4956 90L54.4956 84.0542L55.4839 84.0542L55.6558 85.1016H55.7148C55.833 84.8903 55.9798 84.6969 56.1553 84.5215C56.3307 84.346 56.5312 84.2064 56.7568 84.1025C56.986 83.9951 57.2367 83.9414 57.5088 83.9414ZM60.5059 81.6426V83.6567C60.5059 83.8895 60.4987 84.1187 60.4844 84.3442C60.4736 84.5662 60.4629 84.7399 60.4521 84.8652H60.5059C60.667 84.6074 60.8908 84.3908 61.1772 84.2153C61.4673 84.0363 61.8379 83.9468 62.2891 83.9468C62.9945 83.9468 63.562 84.2064 63.9917 84.7256C64.4214 85.2412 64.6362 86.0057 64.6362 87.019C64.6362 87.6922 64.5378 88.258 64.3408 88.7163C64.1439 89.1746 63.8664 89.522 63.5083 89.7583C63.1538 89.991 62.7367 90.1074 62.2568 90.1074C61.8057 90.1074 61.4404 90.0251 61.1611 89.8604C60.8854 89.6921 60.6688 89.4969 60.5112 89.2749H60.4199L60.189 90H59.2437L59.2437 81.6426H60.5059ZM61.9561 84.9727C61.598 84.9727 61.3133 85.0443 61.1021 85.1875C60.8944 85.3307 60.744 85.5456 60.6509 85.832C60.5578 86.1149 60.5094 86.4748 60.5059 86.9116V87.0244C60.5059 87.6868 60.6097 88.1935 60.8174 88.5444C61.0286 88.8953 61.4118 89.0708 61.9668 89.0708C62.4072 89.0708 62.7456 88.8936 62.9819 88.5391C63.2183 88.181 63.3364 87.6689 63.3364 87.0029C63.3364 86.3298 63.2183 85.8231 62.9819 85.4829C62.7492 85.1427 62.4072 84.9727 61.9561 84.9727ZM68.4658 83.9414C68.9958 83.9414 69.4505 84.0506 69.8301 84.269C70.2096 84.4875 70.5015 84.7972 70.7056 85.1982C70.9097 85.5993 71.0117 86.0791 71.0117 86.6377V87.3145H67.0425C67.0568 87.891 67.2108 88.335 67.5044 88.6465C67.8016 88.958 68.217 89.1138 68.7505 89.1138C69.13 89.1138 69.4702 89.078 69.771 89.0063C70.0754 88.9312 70.3887 88.8219 70.7109 88.6787V89.7046C70.4137 89.8442 70.1112 89.9463 69.8032 90.0107C69.4953 90.0752 69.1265 90.1074 68.6968 90.1074C68.1131 90.1074 67.5993 89.9946 67.1553 89.769C66.7148 89.5399 66.3693 89.1997 66.1187 88.7485C65.8716 88.2974 65.748 87.737 65.748 87.0674C65.748 86.4014 65.8608 85.8356 66.0864 85.3701C66.312 84.9046 66.6289 84.5501 67.0371 84.3066C67.4453 84.0632 67.9215 83.9414 68.4658 83.9414ZM68.4658 84.8921C68.0684 84.8921 67.7461 85.021 67.499 85.2788C67.2555 85.5366 67.1123 85.9144 67.0693 86.4121H69.7764C69.7728 86.1149 69.7227 85.8517 69.626 85.6226C69.5329 85.3934 69.3896 85.2144 69.1963 85.0854C69.0065 84.9565 68.763 84.8921 68.4658 84.8921ZM75.4482 83.9414C75.5485 83.9414 75.6577 83.9468 75.7759 83.9575C75.894 83.9683 75.9961 83.9826 76.082 84.0005L75.9639 85.1821C75.8887 85.1606 75.7956 85.1445 75.6846 85.1338C75.5771 85.123 75.4805 85.1177 75.3945 85.1177C75.1689 85.1177 74.9541 85.1553 74.75 85.2305C74.5459 85.3021 74.3651 85.4131 74.2075 85.5635C74.05 85.7103 73.9264 85.8947 73.8369 86.1167C73.7474 86.3387 73.7026 86.5965 73.7026 86.8901V90H72.4351V84.0542H73.4233L73.5952 85.1016H73.6543C73.7725 84.8903 73.9193 84.6969 74.0947 84.5215C74.2702 84.346 74.4707 84.2064 74.6963 84.1025C74.9255 83.9951 75.1761 83.9414 75.4482 83.9414ZM81.1792 88.3027C81.1792 88.693 81.0843 89.0225 80.8945 89.291C80.7048 89.5596 80.4272 89.7637 80.062 89.9033C79.7004 90.0394 79.2563 90.1074 78.73 90.1074C78.3146 90.1074 77.9565 90.077 77.6558 90.0161C77.3586 89.9588 77.0775 89.8693 76.8125 89.7476V88.6572C77.0954 88.7897 77.4123 88.9043 77.7632 89.001C78.1177 89.0977 78.4525 89.146 78.7676 89.146C79.1829 89.146 79.4819 89.0815 79.6646 88.9526C79.8472 88.8201 79.9385 88.6447 79.9385 88.4263C79.9385 88.2974 79.9009 88.1828 79.8257 88.0825C79.7541 87.9787 79.618 87.873 79.4175 87.7656C79.2205 87.6546 78.9305 87.5221 78.5474 87.3682C78.1714 87.2178 77.8545 87.0674 77.5967 86.917C77.3389 86.7666 77.1437 86.5858 77.0112 86.3745C76.8787 86.1597 76.8125 85.8857 76.8125 85.5527C76.8125 85.0264 77.0202 84.6271 77.4355 84.355C77.8545 84.0793 78.4077 83.9414 79.0952 83.9414C79.4604 83.9414 79.8042 83.979 80.1265 84.0542C80.4523 84.1258 80.771 84.2314 81.0825 84.3711L80.6851 85.3218C80.4165 85.2036 80.1462 85.1069 79.874 85.0317C79.6055 84.953 79.3315 84.9136 79.0522 84.9136C78.7264 84.9136 78.4775 84.9637 78.3057 85.064C78.1374 85.1642 78.0532 85.3075 78.0532 85.4937C78.0532 85.6333 78.0944 85.7515 78.1768 85.8481C78.2591 85.9448 78.4006 86.0415 78.6011 86.1382C78.8052 86.2349 79.0881 86.3548 79.4497 86.498C79.8042 86.6341 80.1104 86.7773 80.3682 86.9277C80.6296 87.0745 80.8301 87.2554 80.9697 87.4702C81.1094 87.6851 81.1792 87.9626 81.1792 88.3027Z" fill="#303030"/>
<path d="M88.1797 17.6641H91.3047V19.0547H88.1797V22.2109H86.7891V19.0547H83.6719V17.6641H86.7891V14.4766H88.1797V17.6641Z" fill="#FF6C00"/>
</svg>
